<?xml version="1.0" encoding="UTF-8" standalone="no"?>
<!-- Created with Inkscape (http://www.inkscape.org/) -->

<svg
   width="66.872818mm"
   height="21.587547mm"
   viewBox="0 0 66.872818 21.587547"
   version="1.1"
   id="svg5"
   xml:space="preserve"
   xmlns="http://www.w3.org/2000/svg"
   xmlns:svg="http://www.w3.org/2000/svg"><defs
     id="defs2" /><g
     id="layer1"
     transform="translate(-67.036363,-54.056464)"><g
       id="g244"><g
         style="fill:none"
         id="g188"
         transform="matrix(0.32097998,0,0,0.31443054,86.149253,58.664762)"><path
           d="M 46.2658,20.4632 24.3497,7.67847 12.1945,0.637604 0.22345,21.5749 0.407616,41.2153 22.1396,54 24.3497,52.703 V 34.1744 l 9.7609,-17.2316 9.9452,5.7438 v 18.5287 l 2.21,-1.297 z"
           fill="#ff6060"
           id="path179" /></g><g
         style="fill:none"
         id="g199"
         transform="matrix(0.31761182,0,0,0.31736142,104.6091,58.640968)"><path
           d="M 0.789307,43.2534 4.28853,36.5831 c 4.05173,2.7793 10.31347,4.8174 16.39107,4.8174 7.9193,0 11.0502,-2.4087 11.0502,-6.485 0,-10.5613 -29.65131,-1.4823 -29.65131,-20.1962 0,-8.52311 7.55096,-14.081696 19.52201,-14.081696 6.0776,0 13.076,1.667576 17.1277,4.261576 L 35.0448,11.5695 C 30.8089,8.79019 26.2047,7.86376 21.6005,7.86376 c -7.3668,0 -11.0502,2.77934 -11.0502,6.48504 0,11.1171 29.6513,2.0381 29.6513,20.3814 0,8.5232 -7.7351,13.8965 -20.2587,13.8965 C 12.392,48.812 4.65687,46.4033 0.789307,43.2534 Z"
           fill="#ff6060"
           id="path190" /></g><g
         style="fill:none"
         id="g210"
         transform="matrix(0.31492644,0,0,0.31519743,120.89595,58.544055)"><path
           d="m 41.3215,19.7221 v 28.534 h -8.1034 v -6.2997 c -2.7625,4.2616 -8.1035,6.6703 -15.4702,6.6703 -10.68188,0 -17.311987,-5.7439 -17.311987,-13.8965 0,-7.5967 4.788407,-13.7111 18.785287,-13.7111 h 13.4444 v -1.6676 c 0,-7.2262 -4.2359,-11.30245 -12.5236,-11.30245 -5.525,0 -11.23429,2.03815 -14.91768,5.00275 L 1.72509,6.56676 C 6.5135,2.67575 13.5119,0.452316 21.0629,0.452316 34.1389,0.637602 41.3215,6.93733 41.3215,19.7221 Z M 32.8498,33.8038 V 27.1335 H 19.7737 c -8.4718,0 -10.86599,3.3352 -10.86599,7.2262 0,4.6321 3.86759,7.5967 10.31349,7.5967 6.4459,0.1853 11.6027,-2.594 13.6286,-8.1526 z"
           fill="#ff6060"
           id="path201" /></g><g
         style="fill:none"
         id="g221"
         transform="matrix(0.32170269,0,0,0.31951702,67.036361,54.056464)"><path
           d="M 20.0745,34.6485 8.84014,46.1362 V 62.2561 H 0 V 0 H 8.84014 V 34.8338 L 42.359,0 H 52.4883 L 26.1521,27.9782 54.33,62.2561 H 44.0165 Z"
           fill="#ff6060"
           id="path212" /></g><g
         style="fill:none"
         id="g232"
         transform="matrix(0.32387333,0,0,0.29675367,96.139165,68.847726)"><path
           d="M 0.532257,3.84196 V 16.4414 L 5.87317,13.2916 V 0.692101 Z"
           fill="#ff6060"
           id="path223" /></g></g></g></svg>
